<svg xmlns="http://www.w3.org/2000/svg" width="956.168" height="57.118" viewBox="0 0 956.168 57.118"><g transform="translate(-1287.832 -994.383)"><g transform="translate(1463.477 1008.046)"><path d="M213.95,36.422v.756s.05.419.351.419h2.688a.382.382,0,0,0,.375-.419v-.572l.014-6.631a1.9,1.9,0,0,0-.966-1.7l-.014-1.655a.263.263,0,0,0-.234-.284h-1a.253.253,0,0,0-.227.277l.012,1.662a1.894,1.894,0,0,0-1,1.7Z" transform="translate(-162.529 -26.333)" fill="#f04e30"/><path d="M215.662,33.446a1.714,1.714,0,1,1-1.717,1.71,1.716,1.716,0,0,1,1.717-1.71" transform="translate(-162.533 -21.221)" fill="#f04e30"/><path d="M215.661,30.783a1.713,1.713,0,1,0-1.71-1.71,1.71,1.71,0,0,0,1.71,1.71" transform="translate(-162.529 -25.596)" fill="#f04e30"/><path d="M219.459,34.4c0-1.8.394-3.692,2.068-3.692s2.042,1.9,2.042,3.692-.375,3.716-2.042,3.716-2.068-1.92-2.068-3.716m-2.669,0c0,4.508,2.545,5.548,4.737,5.548s4.718-1.04,4.718-5.548c0-4.381-2.528-5.531-4.718-5.531s-4.737,1.15-4.737,5.531m11.06,5.381h2.583V33.9c0-2.006,1.169-2.652,2.233-2.652a2.708,2.708,0,0,1,.732.1V28.93a3.034,3.034,0,0,0-.437-.062A3,3,0,0,0,230.225,31h-.038c0-.646-.062-1.316-.086-1.963h-2.337a14.781,14.781,0,0,1,.086,1.777Zm9.116-5.486c0-2.19.522-3.444,1.877-3.463,1.236-.019,2.092,1.188,2.092,3.444,0,2.435-.646,3.611-2.277,3.611-.873,0-1.691-1.071-1.691-3.592m-2.19,9.454a10.893,10.893,0,0,0,3.69.665c3.949,0,4.97-2.4,4.97-5.758v-7.93c0-.565.043-1.126.081-1.691H241.18c-.019.565-.081,1.107-.081,1.672h-.086a3.071,3.071,0,0,0-2.836-1.839c-2.817,0-3.881,2.609-3.881,5.574,0,4.336,2.251,5.338,3.759,5.338a2.944,2.944,0,0,0,2.836-1.813h.043v1.021c0,1.691-.4,3.382-2.843,3.382a6.842,6.842,0,0,1-3.167-.916Z" transform="translate(-160.488 -24.511)" fill="#c4c3c7"/><path d="M185.262,31.748A4.935,4.935,0,0,1,188.2,30.7a1.853,1.853,0,0,1,2.006,2.049v.394h-.524c-3.272,0-5.653.732-5.653,3.654a3.081,3.081,0,0,0,3.212,3.15,3.465,3.465,0,0,0,3.008-1.624h.043a5.475,5.475,0,0,0,.141,1.457h2.337a13.309,13.309,0,0,1-.148-1.9V33.186c0-2.693-.768-4.317-4.109-4.317a7.46,7.46,0,0,0-3.4.792Zm4.946,3.382c0,1.92-.567,3.064-2.111,3.064a1.557,1.557,0,0,1-1.648-1.65c0-1.562,1.316-2.023,3.53-2.023h.229Zm12.6,4.651h2.817l2.862-10.747h-2.5L204.251,37.4h-.043l-1.772-8.366H199.5l-1.82,8.366h-.038L195.9,29.034h-2.669l2.9,10.747h2.843l1.875-8.366h.045Zm6.883-8.033a4.959,4.959,0,0,1,2.947-1.047,1.847,1.847,0,0,1,2,2.049v.394h-.517c-3.277,0-5.66.732-5.66,3.654a3.082,3.082,0,0,0,3.217,3.15,3.454,3.454,0,0,0,3-1.624h.043a5.194,5.194,0,0,0,.148,1.457h2.337a13.309,13.309,0,0,1-.148-1.9V33.186c0-2.693-.775-4.317-4.109-4.317a7.435,7.435,0,0,0-3.4.792Zm4.946,3.382c0,1.92-.56,3.064-2.1,3.064a1.553,1.553,0,0,1-1.648-1.65c0-1.562,1.315-2.023,3.523-2.023h.229Zm4.176,4.651h2.59V33.894c0-2,1.169-2.645,2.233-2.645a2.416,2.416,0,0,1,.725.1V28.931a2.9,2.9,0,0,0-.437-.062A2.994,2.994,0,0,0,221.2,31h-.043c0-.646-.062-1.316-.086-1.963h-2.337a13.782,13.782,0,0,1,.086,1.772Zm14.339-2.564a4.278,4.278,0,0,1-2.817.835c-2.006,0-2.738-1.107-2.738-2.946h6.218v-.5c0-4.386-1.98-5.739-4.3-5.739-2.731,0-4.424,2.485-4.424,5.7,0,2.9,1.5,5.383,4.965,5.383a7.951,7.951,0,0,0,3.217-.689ZM227.6,33.482c0-1.421.565-2.86,1.92-2.86,1.169,0,1.8.959,1.8,2.86Z" transform="translate(-184.031 -24.51)" fill="#373d48"/><path d="M191.768,39.631h-.875l-1.174,4H189.7l-1.212-4h-1.052l-1.231,4h-.019l-1.112-4H184.1l1.557,4.836h1.026l1.225-4.061h.017l1.249,4.061h1.033Z" transform="translate(-183.98 -16.777)" fill="#373d48"/><path d="M196.36,39.631h-.875l-1.174,4h-.019l-1.212-4h-1.052l-1.231,4h-.019l-1.107-4h-.978l1.557,4.836h1.026l1.225-4.061h.017l1.255,4.061h1.035Z" transform="translate(-180.68 -16.777)" fill="#373d48"/><path d="M200.952,39.631h-.868l-1.181,4h-.019l-1.212-4H196.62l-1.231,4h-.019l-1.107-4h-.978l1.557,4.836h1.033l1.219-4.061h.017l1.255,4.061H199.4Z" transform="translate(-177.38 -16.777)" fill="#373d48"/><rect width="1.064" height="1.059" transform="translate(23.953 26.632)" fill="#373d48"/><path d="M203.416,44.513a8.287,8.287,0,0,1-.036-.949v-2c0-1.322-.56-2-1.944-2a3.1,3.1,0,0,0-1.593.449l.05.763a2.244,2.244,0,0,1,1.4-.492c.892,0,1.193.425,1.193,1.255-.351-.019-.6-.019-.947-.019-.918,0-2.246.382-2.246,1.593,0,1.052.732,1.507,1.772,1.507a1.794,1.794,0,0,0,1.5-.737h.019v.627Zm-.928-1.877a1.218,1.218,0,0,1-1.347,1.267.851.851,0,0,1-.9-.787c0-.849,1.193-.928,1.679-.928.191,0,.375.017.565.017Z" transform="translate(-173.061 -16.822)" fill="#373d48"/><path d="M209.839,39.631h-.868l-1.176,4h-.017l-1.219-4h-1.052l-1.231,4h-.019l-1.107-4h-.978l1.557,4.836h1.033l1.217-4.061H206l1.255,4.061h1.035Z" transform="translate(-170.993 -16.777)" fill="#373d48"/><path d="M211.076,44.513a7.7,7.7,0,0,1-.038-.949v-2c0-1.322-.56-2-1.944-2a3.082,3.082,0,0,0-1.593.449l.05.763a2.229,2.229,0,0,1,1.4-.492c.885,0,1.193.425,1.193,1.255-.351-.019-.6-.019-.947-.019-.923,0-2.245.382-2.245,1.593,0,1.052.725,1.507,1.77,1.507a1.793,1.793,0,0,0,1.5-.737h.019v.627Zm-.93-1.877A1.22,1.22,0,0,1,208.8,43.9a.851.851,0,0,1-.9-.787c0-.849,1.193-.928,1.672-.928.191,0,.382.017.572.017Z" transform="translate(-167.556 -16.822)" fill="#373d48"/><path d="M210.208,44.513h.885v-2.2c0-1.212.524-1.968,1.316-1.968a1.337,1.337,0,0,1,.5.086v-.8a2.573,2.573,0,0,0-.59-.062,1.474,1.474,0,0,0-1.262.861h-.019v-.751h-.83Z" transform="translate(-165.219 -16.822)" fill="#373d48"/><path d="M213.109,42.293h3.451c0-1.55-.522-2.726-2.135-2.726a2.243,2.243,0,0,0-2.263,2.442,2.312,2.312,0,0,0,2.5,2.614,3.72,3.72,0,0,0,1.526-.313v-.894a2.8,2.8,0,0,1-1.49.486A1.581,1.581,0,0,1,213.109,42.293Zm1.3-2.006a1.217,1.217,0,0,1,1.2,1.341h-2.5A1.341,1.341,0,0,1,214.408,40.287Z" transform="translate(-163.814 -16.822)" fill="#373d48"/><rect width="1.059" height="1.059" transform="translate(53.972 26.632)" fill="#373d48"/><path d="M219.222,39.567a2.383,2.383,0,0,0-2.461,2.528,2.459,2.459,0,1,0,4.915,0A2.381,2.381,0,0,0,219.222,39.567Zm0,4.336A1.617,1.617,0,0,1,217.71,42.1a1.534,1.534,0,1,1,3.02,0A1.618,1.618,0,0,1,219.222,43.9Z" transform="translate(-160.509 -16.822)" fill="#373d48"/><path d="M220.315,44.513h.892v-2.2c0-1.212.524-1.968,1.317-1.968a1.337,1.337,0,0,1,.5.086v-.8a2.573,2.573,0,0,0-.59-.062,1.472,1.472,0,0,0-1.261.861h-.019v-.751h-.837Z" transform="translate(-157.955 -16.822)" fill="#373d48"/><path d="M226.044,39.677v.72h-.019a1.58,1.58,0,0,0-1.593-.83,2.316,2.316,0,0,0-2.159,2.566,2.127,2.127,0,0,0,2.068,2.38,2.027,2.027,0,0,0,1.624-.751h.017v.474a1.459,1.459,0,0,1-1.5,1.653,3.667,3.667,0,0,1-1.741-.43l-.1.823a4.926,4.926,0,0,0,1.734.333c1.736,0,2.492-.844,2.492-2.313V39.677Zm-1.476,4.116c-.83,0-1.347-.8-1.347-1.71,0-.825.45-1.8,1.347-1.8.947,0,1.414.861,1.414,1.863A1.51,1.51,0,0,1,224.567,43.793Z" transform="translate(-156.548 -16.822)" fill="#373d48"/><rect width="1.064" height="1.059" transform="translate(71.865 26.632)" fill="#373d48"/><path d="M227.159,44.467h3.924v-.72h-2.891l2.786-3.341v-.775h-3.685v.72h2.652l-2.786,3.334Z" transform="translate(-153.036 -16.777)" fill="#373d48"/><path d="M234.053,44.513a8.287,8.287,0,0,1-.036-.949v-2c0-1.322-.56-2-1.944-2a3.1,3.1,0,0,0-1.593.449l.05.763a2.229,2.229,0,0,1,1.4-.492c.892,0,1.193.425,1.193,1.255-.351-.019-.6-.019-.947-.019-.916,0-2.246.382-2.246,1.593,0,1.052.732,1.507,1.772,1.507a1.793,1.793,0,0,0,1.5-.737h.019v.627Zm-.928-1.877a1.217,1.217,0,0,1-1.347,1.267.851.851,0,0,1-.9-.787c0-.849,1.193-.928,1.679-.928.184,0,.375.017.565.017Z" transform="translate(-151.044 -16.822)" fill="#373d48"/></g><path d="M100.648,50.3h7.9l1-7.474h-7.892ZM85.953,74.661l1.932-14.284H82.674a.742.742,0,0,1-.842-.835v-8.4a.746.746,0,0,1,.842-.842h6.637l1.009-7.474H84.859a.745.745,0,0,1-.842-.842v-8.4a.746.746,0,0,1,.842-.842h6.8l1.846-13.521a.9.9,0,0,1,.93-.842h9.736c.622,0,.873.284.756.842l-1.844,13.521H110.9l1.846-13.521a.9.9,0,0,1,.923-.842h9.743c.615,0,.868.284.756.842L122.32,32.746h5.29a.747.747,0,0,1,.842.842v8.4a.746.746,0,0,1-.842.842h-6.718L119.883,50.3h5.543a.745.745,0,0,1,.842.842v8.4a.741.741,0,0,1-.842.835h-6.89l-1.93,14.284a.889.889,0,0,1-.923.837h-9.745c-.614,0-.866-.277-.756-.837l1.932-14.284H99.307L97.376,74.661a.9.9,0,0,1-.928.837H86.7c-.615,0-.868-.277-.751-.837" transform="translate(1206 976)" fill="#f04e30"/><path d="M112.719,74.657V19.222a.74.74,0,0,1,.842-.837h12.347a1.375,1.375,0,0,1,1.426.837L144.552,51.56h.339V19.222a.738.738,0,0,1,.835-.837h11.763a.738.738,0,0,1,.835.837V74.657a.741.741,0,0,1-.835.842H145.142a1.382,1.382,0,0,1-1.433-.842L126.664,42.407h-.505V74.657a.745.745,0,0,1-.842.842H113.561a.743.743,0,0,1-.842-.842" transform="translate(1228.197 976.001)" fill="#f04e30"/><path d="M200.1,46.917a28.5,28.5,0,1,1-28.5-28.5,28.5,28.5,0,0,1,28.5,28.5" transform="translate(1250.037 976.025)" fill="#f04e30"/><path d="M186.962,42.823a19.232,19.232,0,1,1-19.235-19.235,19.236,19.236,0,0,1,19.235,19.235" transform="translate(1253.91 979.741)" fill="#fff"/><path d="M155.218,46.831V35h-.05l-3.112,2.037a.277.277,0,0,1-.234.038c-.067-.026-.1-.093-.1-.2V32.43a.449.449,0,0,1,.179-.356l3.339-2.313a.86.86,0,0,1,.493-.153H160.1a.226.226,0,0,1,.258.251V46.831a.228.228,0,0,1-.258.258h-4.627a.228.228,0,0,1-.258-.258" transform="translate(1256.229 984.067)" fill="#373d48"/><path d="M165,35.842a1.464,1.464,0,0,0,1.956,0,1.3,1.3,0,0,0,.382-.966,1.28,1.28,0,0,0-.382-.959,1.459,1.459,0,0,0-1.956,0,1.26,1.26,0,0,0-.388.959,1.275,1.275,0,0,0,.388.966m-.191,4.835a1.606,1.606,0,0,0,0,2.289,1.747,1.747,0,0,0,2.337,0,1.622,1.622,0,0,0,0-2.289,1.747,1.747,0,0,0-2.337,0M159.5,42.024a4.5,4.5,0,0,1,1.9-3.833v-.048a4.167,4.167,0,0,1-1.519-3.4,4.96,4.96,0,0,1,1.66-3.778,7.144,7.144,0,0,1,8.87,0,4.949,4.949,0,0,1,1.655,3.778,4.182,4.182,0,0,1-1.512,3.4v.048a4.5,4.5,0,0,1,1.9,3.833,4.873,4.873,0,0,1-1.853,4.011,7.918,7.918,0,0,1-9.257,0,4.887,4.887,0,0,1-1.846-4.011" transform="translate(1261.82 983.936)" fill="#373d48"/><path d="M153.354,59.213l-3.838-3.876,30.546-30.81,3.845,3.874Z" transform="translate(1254.642 980.415)" fill="#f04e30"/><g transform="translate(1626.489 1015.423)"><path d="M278.879,30.761h5.043a9.943,9.943,0,0,1,2.6.26,4.577,4.577,0,0,1,2.061,1.26,5.938,5.938,0,0,1,1.3,2.214,10.067,10.067,0,0,1,.449,3.231,9,9,0,0,1-.419,2.906,6.022,6.022,0,0,1-1.464,2.415,4.828,4.828,0,0,1-1.939,1.091,8.293,8.293,0,0,1-2.442.289h-5.192Zm2.758,2.312v9.05H283.7a7.483,7.483,0,0,0,1.669-.131,2.539,2.539,0,0,0,1.114-.567,2.909,2.909,0,0,0,.722-1.318,8.891,8.891,0,0,0,.28-2.5,8.14,8.14,0,0,0-.28-2.434,3.127,3.127,0,0,0-.782-1.323,2.621,2.621,0,0,0-1.277-.643,12.472,12.472,0,0,0-2.267-.131Z" transform="translate(-278.879 -30.527)" fill="#231f20"/><path d="M286.911,44.426V30.761h5.809a9.936,9.936,0,0,1,3.183.368,3.132,3.132,0,0,1,1.59,1.31,3.942,3.942,0,0,1,.6,2.153,3.65,3.65,0,0,1-.906,2.54,4.324,4.324,0,0,1-2.7,1.261,6.574,6.574,0,0,1,1.478,1.148,15.709,15.709,0,0,1,1.569,2.219l1.669,2.666h-3.3l-2-2.973a19.667,19.667,0,0,0-1.452-2.009,2.132,2.132,0,0,0-.83-.567,4.475,4.475,0,0,0-1.389-.155h-.56v5.7Zm2.76-7.887h2.042a10.586,10.586,0,0,0,2.48-.167,1.492,1.492,0,0,0,.773-.577,1.789,1.789,0,0,0,.278-1.026,1.636,1.636,0,0,0-.368-1.114,1.685,1.685,0,0,0-1.038-.536q-.338-.046-2.014-.046h-2.153Z" transform="translate(-273.107 -30.527)" fill="#231f20"/><path d="M294.879,44.426V30.761h2.76V44.426Z" transform="translate(-267.38 -30.527)" fill="#231f20"/><path d="M298.031,44.426V30.761h2.685l5.593,9.126V30.761h2.564V44.426H306.1l-5.51-8.911v8.911Z" transform="translate(-265.115 -30.527)" fill="#231f20"/><path d="M306.058,44.426V30.761h2.76v6.067l5.574-6.067H318.1l-5.146,5.323,5.426,8.342h-3.571l-3.755-6.412L308.818,40.3v4.128Z" transform="translate(-259.347 -30.527)" fill="#231f20"/><path d="M317.15,44.426V30.761h5.807a9.929,9.929,0,0,1,3.183.368,3.132,3.132,0,0,1,1.59,1.31,3.942,3.942,0,0,1,.6,2.153,3.649,3.649,0,0,1-.9,2.54,4.329,4.329,0,0,1-2.7,1.261,6.534,6.534,0,0,1,1.478,1.148,15.708,15.708,0,0,1,1.569,2.219l1.671,2.666h-3.3l-2-2.973a19.586,19.586,0,0,0-1.454-2.009,2.133,2.133,0,0,0-.83-.567,4.475,4.475,0,0,0-1.389-.155h-.56v5.7Zm2.758-7.887h2.042a10.585,10.585,0,0,0,2.48-.167,1.486,1.486,0,0,0,.773-.577,1.777,1.777,0,0,0,.28-1.026,1.637,1.637,0,0,0-.37-1.114,1.685,1.685,0,0,0-1.038-.536q-.335-.046-2.014-.046h-2.154Z" transform="translate(-251.375 -30.527)" fill="#231f20"/><path d="M325.166,44.426V30.761H335.3v2.312h-7.373V36.1h6.861v2.3h-6.861v3.719h7.634v2.3Z" transform="translate(-245.614 -30.527)" fill="#231f20"/><path d="M332.169,40.078l2.685-.261a3.271,3.271,0,0,0,.983,1.985,2.974,2.974,0,0,0,2,.634,3.066,3.066,0,0,0,2.007-.564,1.679,1.679,0,0,0,.677-1.318,1.252,1.252,0,0,0-.285-.827,2.276,2.276,0,0,0-.993-.591q-.485-.168-2.208-.6a7.508,7.508,0,0,1-3.114-1.351,3.559,3.559,0,0,1-1.258-2.752,3.513,3.513,0,0,1,.593-1.952,3.7,3.7,0,0,1,1.7-1.384,6.82,6.82,0,0,1,2.69-.476,5.768,5.768,0,0,1,3.874,1.129,3.978,3.978,0,0,1,1.365,3.011l-2.758.12a2.346,2.346,0,0,0-.76-1.514,2.771,2.771,0,0,0-1.748-.462,3.149,3.149,0,0,0-1.884.495.994.994,0,0,0-.438.847,1.052,1.052,0,0,0,.411.83,7.231,7.231,0,0,0,2.535.913,13.333,13.333,0,0,1,2.978.985,3.843,3.843,0,0,1,1.511,1.389,4.067,4.067,0,0,1,.545,2.176,4.008,4.008,0,0,1-.653,2.2,3.9,3.9,0,0,1-1.846,1.524,7.746,7.746,0,0,1-2.973.5,5.927,5.927,0,0,1-3.98-1.2A5.212,5.212,0,0,1,332.169,40.078Z" transform="translate(-240.582 -30.625)" fill="#231f20"/><path d="M339.985,44.426V30.761h4.427a16.006,16.006,0,0,1,3.281.2,3.572,3.572,0,0,1,1.966,1.339,4.234,4.234,0,0,1,.794,2.66A4.458,4.458,0,0,1,350,37.081a3.744,3.744,0,0,1-1.16,1.347,4.044,4.044,0,0,1-1.432.648,15.727,15.727,0,0,1-2.862.2h-1.8v5.154Zm2.758-11.353v3.879h1.511a7.134,7.134,0,0,0,2.181-.215A1.8,1.8,0,0,0,347.611,35a1.763,1.763,0,0,0-.438-1.231,1.919,1.919,0,0,0-1.11-.607,13.327,13.327,0,0,0-1.985-.093Z" transform="translate(-234.965 -30.527)" fill="#231f20"/><path d="M347.068,37.775a8.707,8.707,0,0,1,.624-3.506,6.453,6.453,0,0,1,1.273-1.872,5.31,5.31,0,0,1,1.765-1.231,7.5,7.5,0,0,1,2.946-.541,6.422,6.422,0,0,1,4.835,1.873,7.183,7.183,0,0,1,1.813,5.211,7.156,7.156,0,0,1-1.8,5.178,6.362,6.362,0,0,1-4.811,1.87,6.427,6.427,0,0,1-4.847-1.86A7.06,7.06,0,0,1,347.068,37.775Zm2.843-.093a5.123,5.123,0,0,0,1.073,3.52,3.686,3.686,0,0,0,5.431.009,5.228,5.228,0,0,0,1.057-3.566,5.141,5.141,0,0,0-1.029-3.5,3.815,3.815,0,0,0-5.486.014A5.166,5.166,0,0,0,349.911,37.682Z" transform="translate(-229.874 -30.625)" fill="#231f20"/><path d="M356.05,44.426V30.761h2.686l5.593,9.126V30.761h2.564V44.426h-2.769l-5.51-8.911v8.911Z" transform="translate(-223.419 -30.527)" fill="#231f20"/><path d="M363.649,40.078l2.686-.261a3.261,3.261,0,0,0,.983,1.985,2.97,2.97,0,0,0,2,.634,3.074,3.074,0,0,0,2.009-.564A1.677,1.677,0,0,0,372,40.554a1.243,1.243,0,0,0-.285-.827,2.268,2.268,0,0,0-.992-.591q-.485-.168-2.21-.6a7.509,7.509,0,0,1-3.112-1.351,3.586,3.586,0,0,1-.667-4.7,3.708,3.708,0,0,1,1.7-1.384,6.829,6.829,0,0,1,2.691-.476,5.768,5.768,0,0,1,3.874,1.129,3.982,3.982,0,0,1,1.363,3.011l-2.758.12a2.345,2.345,0,0,0-.758-1.514,2.779,2.779,0,0,0-1.75-.462,3.148,3.148,0,0,0-1.884.495.994.994,0,0,0-.438.847,1.054,1.054,0,0,0,.412.83,7.218,7.218,0,0,0,2.533.913,13.322,13.322,0,0,1,2.98.985,3.843,3.843,0,0,1,1.511,1.389,4.067,4.067,0,0,1,.543,2.176,4.019,4.019,0,0,1-.651,2.2,3.91,3.91,0,0,1-1.846,1.524,7.762,7.762,0,0,1-2.975.5,5.922,5.922,0,0,1-3.979-1.2A5.213,5.213,0,0,1,363.649,40.078Z" transform="translate(-217.958 -30.625)" fill="#231f20"/><path d="M371.417,44.426V30.761h2.758V44.426Z" transform="translate(-212.376 -30.527)" fill="#231f20"/><path d="M374.556,30.761h5.464a15.881,15.881,0,0,1,2.418.134,3.568,3.568,0,0,1,1.426.564,3.507,3.507,0,0,1,1.05,1.143,3.1,3.1,0,0,1,.419,1.6,3.177,3.177,0,0,1-.519,1.762,3.215,3.215,0,0,1-1.4,1.2,3.6,3.6,0,0,1,1.92,1.239,3.3,3.3,0,0,1,.672,2.062,4.064,4.064,0,0,1-.435,1.811,3.657,3.657,0,0,1-1.184,1.408,3.9,3.9,0,0,1-1.851.648q-.691.075-3.327.093h-4.652Zm2.76,2.274V36.2h1.81c1.074,0,1.741-.015,2-.046a1.818,1.818,0,0,0,1.112-.49,1.442,1.442,0,0,0,.406-1.067,1.492,1.492,0,0,0-.349-1.029,1.576,1.576,0,0,0-1.038-.48q-.41-.049-2.36-.048Zm0,5.434v3.654h2.554a12.708,12.708,0,0,0,1.892-.082,1.716,1.716,0,0,0,1-.547,1.682,1.682,0,0,0,.385-1.16,1.774,1.774,0,0,0-.3-1.043,1.681,1.681,0,0,0-.861-.624,9.288,9.288,0,0,0-2.447-.2Z" transform="translate(-210.12 -30.527)" fill="#231f20"/><path d="M382.617,44.38V30.825h2.758V42.077h6.863v2.3Z" transform="translate(-204.327 -30.481)" fill="#231f20"/><g transform="translate(186.715 0.234)"><path d="M392.525,44.426V38.675l-5.006-7.914h3.236l3.216,5.407,3.15-5.407h3.18l-5.025,7.932v5.733Z" transform="translate(-387.519 -30.761)" fill="#231f20"/></g><path d="M394.509,39.807V37.188h2.619v2.619Z" transform="translate(-195.78 -25.908)" fill="#231f20"/><path d="M400.709,44.426V30.761h2.685l5.592,9.126V30.761h2.564V44.426h-2.769l-5.508-8.911v8.911Z" transform="translate(-191.325 -30.527)" fill="#231f20"/><path d="M408.388,37.775a8.705,8.705,0,0,1,.626-3.506,6.416,6.416,0,0,1,1.273-1.872,5.293,5.293,0,0,1,1.765-1.231A7.494,7.494,0,0,1,415,30.625a6.425,6.425,0,0,1,4.835,1.873,7.182,7.182,0,0,1,1.812,5.211,7.149,7.149,0,0,1-1.8,5.178,6.356,6.356,0,0,1-4.809,1.87,6.434,6.434,0,0,1-4.848-1.86A7.067,7.067,0,0,1,408.388,37.775Zm2.844-.093A5.124,5.124,0,0,0,412.3,41.2a3.684,3.684,0,0,0,5.429.009,5.219,5.219,0,0,0,1.059-3.566,5.141,5.141,0,0,0-1.029-3.5,3.817,3.817,0,0,0-5.488.014A5.175,5.175,0,0,0,411.232,37.682Z" transform="translate(-185.806 -30.625)" fill="#231f20"/><path d="M420.839,44.426V33.073h-4.054V30.761h10.86v2.312H423.6V44.426Z" transform="translate(-179.771 -30.527)" fill="#231f20"/><path d="M427.237,44.426V30.761h9.368v2.312H430v3.235h5.7v2.312H430v5.807Z" transform="translate(-172.26 -30.527)" fill="#231f20"/><path d="M433.685,37.775a8.676,8.676,0,0,1,.626-3.506,6.418,6.418,0,0,1,1.273-1.872,5.293,5.293,0,0,1,1.765-1.231,7.494,7.494,0,0,1,2.946-.541,6.418,6.418,0,0,1,4.833,1.873,7.175,7.175,0,0,1,1.813,5.211,7.149,7.149,0,0,1-1.8,5.178,6.36,6.36,0,0,1-4.811,1.87,6.43,6.43,0,0,1-4.847-1.86A7.067,7.067,0,0,1,433.685,37.775Zm2.844-.093A5.124,5.124,0,0,0,437.6,41.2a3.684,3.684,0,0,0,5.429.009,5.219,5.219,0,0,0,1.059-3.566,5.132,5.132,0,0,0-1.031-3.5,3.815,3.815,0,0,0-5.486.014A5.175,5.175,0,0,0,436.529,37.682Z" transform="translate(-167.626 -30.625)" fill="#231f20"/><path d="M442.657,44.426V30.761h5.807a9.928,9.928,0,0,1,3.183.368,3.125,3.125,0,0,1,1.59,1.31,3.928,3.928,0,0,1,.6,2.153,3.656,3.656,0,0,1-.9,2.54,4.329,4.329,0,0,1-2.705,1.261,6.5,6.5,0,0,1,1.478,1.148,15.533,15.533,0,0,1,1.571,2.219l1.667,2.666h-3.3l-1.994-2.973a19.312,19.312,0,0,0-1.454-2.009,2.12,2.12,0,0,0-.83-.567,4.467,4.467,0,0,0-1.389-.155h-.56v5.7Zm2.758-7.887h2.042a10.576,10.576,0,0,0,2.48-.167,1.479,1.479,0,0,0,.773-.577,1.777,1.777,0,0,0,.28-1.026,1.645,1.645,0,0,0-.368-1.114,1.7,1.7,0,0,0-1.04-.536q-.335-.046-2.014-.046h-2.154Z" transform="translate(-161.178 -30.527)" fill="#231f20"/><path d="M453.76,44.426V30.761h4.429a16.028,16.028,0,0,1,3.281.2,3.578,3.578,0,0,1,1.966,1.339,4.244,4.244,0,0,1,.792,2.66,4.479,4.479,0,0,1-.455,2.116,3.749,3.749,0,0,1-1.162,1.347,4.05,4.05,0,0,1-1.43.648,15.754,15.754,0,0,1-2.862.2h-1.8v5.154Zm2.76-11.353v3.879h1.509a7.133,7.133,0,0,0,2.181-.215,1.816,1.816,0,0,0,.863-.672A1.837,1.837,0,0,0,461.386,35a1.763,1.763,0,0,0-.438-1.231,1.915,1.915,0,0,0-1.109-.607,13.356,13.356,0,0,0-1.987-.093Z" transform="translate(-153.199 -30.527)" fill="#231f20"/><path d="M461.17,44.426V30.761H471.3v2.312h-7.373V36.1h6.859v2.3h-6.859v3.719h7.634v2.3Z" transform="translate(-147.874 -30.527)" fill="#231f20"/><path d="M468.584,44.426V30.761h5.807a9.936,9.936,0,0,1,3.183.368,3.125,3.125,0,0,1,1.59,1.31,3.942,3.942,0,0,1,.6,2.153,3.649,3.649,0,0,1-.9,2.54,4.324,4.324,0,0,1-2.7,1.261,6.446,6.446,0,0,1,1.476,1.148A15.26,15.26,0,0,1,479.2,41.76l1.669,2.666h-3.3l-1.994-2.973a18.96,18.96,0,0,0-1.456-2.009,2.1,2.1,0,0,0-.828-.567,4.472,4.472,0,0,0-1.39-.155h-.559v5.7Zm2.758-7.887h2.042a10.576,10.576,0,0,0,2.48-.167,1.486,1.486,0,0,0,.773-.577,1.777,1.777,0,0,0,.278-1.026,1.637,1.637,0,0,0-.368-1.114,1.685,1.685,0,0,0-1.038-.536q-.335-.046-2.014-.046h-2.153Z" transform="translate(-142.546 -30.527)" fill="#231f20"/><path d="M476.193,40.078l2.686-.261a3.261,3.261,0,0,0,.983,1.985,2.969,2.969,0,0,0,2,.634,3.075,3.075,0,0,0,2.009-.564,1.675,1.675,0,0,0,.674-1.318,1.242,1.242,0,0,0-.284-.827,2.268,2.268,0,0,0-.992-.591q-.485-.168-2.21-.6a7.509,7.509,0,0,1-3.112-1.351,3.555,3.555,0,0,1-1.26-2.752,3.513,3.513,0,0,1,.593-1.952,3.7,3.7,0,0,1,1.7-1.384,6.829,6.829,0,0,1,2.691-.476,5.76,5.76,0,0,1,3.872,1.129,3.978,3.978,0,0,1,1.365,3.011l-2.758.12a2.345,2.345,0,0,0-.758-1.514,2.779,2.779,0,0,0-1.75-.462,3.149,3.149,0,0,0-1.884.495.994.994,0,0,0-.438.847,1.049,1.049,0,0,0,.412.83,7.217,7.217,0,0,0,2.533.913,13.355,13.355,0,0,1,2.98.985,3.844,3.844,0,0,1,1.511,1.389,4.083,4.083,0,0,1,.543,2.176,4.019,4.019,0,0,1-.651,2.2,3.911,3.911,0,0,1-1.846,1.524,7.761,7.761,0,0,1-2.975.5,5.919,5.919,0,0,1-3.979-1.2A5.213,5.213,0,0,1,476.193,40.078Z" transform="translate(-137.077 -30.625)" fill="#231f20"/><path d="M483.683,37.775a8.676,8.676,0,0,1,.626-3.506,6.417,6.417,0,0,1,1.273-1.872,5.293,5.293,0,0,1,1.765-1.231,7.493,7.493,0,0,1,2.946-.541,6.425,6.425,0,0,1,4.835,1.873,7.182,7.182,0,0,1,1.811,5.211,7.148,7.148,0,0,1-1.8,5.178,6.358,6.358,0,0,1-4.809,1.87,6.431,6.431,0,0,1-4.848-1.86A7.067,7.067,0,0,1,483.683,37.775Zm2.844-.093A5.124,5.124,0,0,0,487.6,41.2a3.684,3.684,0,0,0,5.429.009,5.219,5.219,0,0,0,1.059-3.566,5.132,5.132,0,0,0-1.031-3.5,3.815,3.815,0,0,0-5.486.014A5.175,5.175,0,0,0,486.527,37.682Z" transform="translate(-131.695 -30.625)" fill="#231f20"/><path d="M492.666,44.426V30.761h2.685l5.592,9.126V30.761h2.564V44.426h-2.769l-5.508-8.911v8.911Z" transform="translate(-125.239 -30.527)" fill="#231f20"/><path d="M500.264,40.078l2.686-.261a3.27,3.27,0,0,0,.983,1.985,2.97,2.97,0,0,0,2,.634,3.074,3.074,0,0,0,2.009-.564,1.677,1.677,0,0,0,.675-1.318,1.251,1.251,0,0,0-.284-.827,2.289,2.289,0,0,0-.992-.591q-.487-.168-2.212-.6a7.52,7.52,0,0,1-3.112-1.351,3.591,3.591,0,0,1-.667-4.7,3.716,3.716,0,0,1,1.7-1.384,6.835,6.835,0,0,1,2.691-.476,5.768,5.768,0,0,1,3.874,1.129,3.984,3.984,0,0,1,1.365,3.011l-2.76.12a2.345,2.345,0,0,0-.758-1.514,2.779,2.779,0,0,0-1.75-.462,3.14,3.14,0,0,0-1.882.495.994.994,0,0,0-.438.847,1.052,1.052,0,0,0,.411.83,7.218,7.218,0,0,0,2.535.913,13.333,13.333,0,0,1,2.978.985,3.843,3.843,0,0,1,1.511,1.389,4.067,4.067,0,0,1,.543,2.176,4.02,4.02,0,0,1-.651,2.2,3.91,3.91,0,0,1-1.846,1.524,7.758,7.758,0,0,1-2.973.5,5.924,5.924,0,0,1-3.98-1.2A5.213,5.213,0,0,1,500.264,40.078Z" transform="translate(-119.778 -30.625)" fill="#231f20"/><path d="M511.155,30.761h2.758v7.4a15.173,15.173,0,0,0,.1,2.282,2.2,2.2,0,0,0,.842,1.347,2.946,2.946,0,0,0,1.824.509,2.788,2.788,0,0,0,1.77-.48,1.9,1.9,0,0,0,.719-1.181,15.433,15.433,0,0,0,.12-2.322V30.761h2.76v7.177a18.408,18.408,0,0,1-.223,3.477A3.831,3.831,0,0,1,521,43.13a4.131,4.131,0,0,1-1.607,1.115,7.027,7.027,0,0,1-2.628.414,7.549,7.549,0,0,1-2.97-.454,4.245,4.245,0,0,1-1.6-1.172,3.769,3.769,0,0,1-.773-1.516,16.56,16.56,0,0,1-.272-3.468Z" transform="translate(-111.951 -30.527)" fill="#231f20"/><path d="M519.205,44.426V30.761h2.685l5.592,9.126V30.761h2.564V44.426h-2.769l-5.508-8.911v8.911Z" transform="translate(-106.166 -30.527)" fill="#231f20"/><path d="M527.205,30.761h5.042a9.944,9.944,0,0,1,2.6.26,4.577,4.577,0,0,1,2.061,1.26,5.96,5.96,0,0,1,1.3,2.214,10.067,10.067,0,0,1,.449,3.231,8.955,8.955,0,0,1-.419,2.906,6.042,6.042,0,0,1-1.464,2.415,4.828,4.828,0,0,1-1.939,1.091,8.292,8.292,0,0,1-2.442.289h-5.192Zm2.758,2.312v9.05h2.061a7.472,7.472,0,0,0,1.669-.131,2.538,2.538,0,0,0,1.114-.567,2.911,2.911,0,0,0,.724-1.318,8.969,8.969,0,0,0,.278-2.5,8.21,8.21,0,0,0-.278-2.434,3.147,3.147,0,0,0-.784-1.323,2.62,2.62,0,0,0-1.279-.643,12.414,12.414,0,0,0-2.263-.131Z" transform="translate(-100.417 -30.527)" fill="#231f20"/><path d="M535.233,44.426V30.761h10.133v2.312h-7.373V36.1h6.859v2.3h-6.859v3.719h7.633v2.3Z" transform="translate(-94.648 -30.527)" fill="#231f20"/><path d="M542.647,44.426V30.761h5.807a9.942,9.942,0,0,1,3.185.368,3.128,3.128,0,0,1,1.588,1.31,3.929,3.929,0,0,1,.6,2.153,3.655,3.655,0,0,1-.9,2.54,4.329,4.329,0,0,1-2.7,1.261,6.524,6.524,0,0,1,1.476,1.148,15.539,15.539,0,0,1,1.571,2.219l1.669,2.666h-3.3l-1.994-2.973a19.5,19.5,0,0,0-1.456-2.009,2.107,2.107,0,0,0-.83-.567,4.459,4.459,0,0,0-1.389-.155h-.559v5.7Zm2.76-7.887h2.04a10.593,10.593,0,0,0,2.482-.167,1.492,1.492,0,0,0,.773-.577,1.789,1.789,0,0,0,.278-1.026,1.637,1.637,0,0,0-.368-1.114,1.7,1.7,0,0,0-1.04-.536q-.333-.046-2.013-.046h-2.153Z" transform="translate(-89.319 -30.527)" fill="#231f20"/><path d="M557.235,44.426V33.073h-4.056V30.761h10.862v2.312h-4.048V44.426Z" transform="translate(-81.751 -30.527)" fill="#231f20"/><path d="M560.541,44.426V30.761H563.3v5.378h5.409V30.761h2.758V44.426h-2.758V38.452H563.3v5.974Z" transform="translate(-76.46 -30.527)" fill="#231f20"/><path d="M568.557,44.426V30.761H578.69v2.312h-7.373V36.1h6.859v2.3h-6.859v3.719h7.633v2.3Z" transform="translate(-70.699 -30.527)" fill="#231f20"/><path d="M591.542,44.426h-3l-1.193-3.1h-5.464l-1.127,3.1h-2.927l5.321-13.665h2.92Zm-5.08-5.405-1.882-5.072-1.848,5.072Z" transform="translate(-64.034 -30.527)" fill="#231f20"/><path d="M593.217,39.5V37.2h5.948v5.445a7.464,7.464,0,0,1-2.513,1.476,9.127,9.127,0,0,1-3.331.639,7.505,7.505,0,0,1-3.74-.9,5.719,5.719,0,0,1-2.4-2.575,8.312,8.312,0,0,1-.8-3.64,7.866,7.866,0,0,1,.894-3.793,6.046,6.046,0,0,1,2.619-2.545,7.074,7.074,0,0,1,3.274-.681,6.527,6.527,0,0,1,3.975,1.067,4.829,4.829,0,0,1,1.841,2.951l-2.74.512a2.9,2.9,0,0,0-1.088-1.59,3.288,3.288,0,0,0-1.989-.583,3.745,3.745,0,0,0-2.877,1.146,4.835,4.835,0,0,0-1.067,3.4,5.348,5.348,0,0,0,1.083,3.65,3.606,3.606,0,0,0,2.832,1.217,4.791,4.791,0,0,0,1.739-.34,5.9,5.9,0,0,0,1.5-.827V39.5Z" transform="translate(-57.887 -30.625)" fill="#231f20"/><path d="M595.3,44.426V30.761h10.132v2.312H598.06V36.1h6.859v2.3H598.06v3.719h7.633v2.3Z" transform="translate(-51.478 -30.527)" fill="#231f20"/><path d="M605.47,37.775a8.706,8.706,0,0,1,.626-3.506,6.419,6.419,0,0,1,1.274-1.872,5.294,5.294,0,0,1,1.765-1.231,7.493,7.493,0,0,1,2.946-.541,6.422,6.422,0,0,1,4.835,1.873,7.183,7.183,0,0,1,1.811,5.211,7.149,7.149,0,0,1-1.8,5.178,6.356,6.356,0,0,1-4.809,1.87,6.434,6.434,0,0,1-4.848-1.86A7.067,7.067,0,0,1,605.47,37.775Zm2.844-.093a5.124,5.124,0,0,0,1.072,3.52,3.684,3.684,0,0,0,5.429.009,5.219,5.219,0,0,0,1.059-3.566,5.142,5.142,0,0,0-1.029-3.5,3.817,3.817,0,0,0-5.488.014A5.175,5.175,0,0,0,608.314,37.682Z" transform="translate(-44.171 -30.625)" fill="#231f20"/><path d="M614.448,44.426V30.761h9.368v2.312h-6.61v3.235h5.706v2.312h-5.706v5.807Z" transform="translate(-37.719 -30.527)" fill="#231f20"/><path d="M630.382,44.45h-2.621V34.578a8.99,8.99,0,0,1-3.382,1.985V34.188a7.557,7.557,0,0,0,2.227-1.274,4.826,4.826,0,0,0,1.65-2.186h2.126Z" transform="translate(-30.582 -30.551)" fill="#231f20"/><path d="M632.413,37.077a2.928,2.928,0,0,1-1.94-2.824,3.309,3.309,0,0,1,1.067-2.526,5.1,5.1,0,0,1,6.06,0,3.3,3.3,0,0,1,1.076,2.526,2.973,2.973,0,0,1-.493,1.691,3.138,3.138,0,0,1-1.389,1.133,3.65,3.65,0,0,1,1.727,1.334,3.5,3.5,0,0,1,.593,2.021,4.117,4.117,0,0,1-1.206,3.076,4.393,4.393,0,0,1-3.212,1.184,4.861,4.861,0,0,1-3.1-.978,3.823,3.823,0,0,1-1.463-3.169,3.917,3.917,0,0,1,.55-2.038A3.538,3.538,0,0,1,632.413,37.077Zm.3,3.216a2.411,2.411,0,0,0,.555,1.688,1.8,1.8,0,0,0,1.385.6A1.742,1.742,0,0,0,635.993,42a2.408,2.408,0,0,0,.529-1.681,2.182,2.182,0,0,0-.54-1.545,1.8,1.8,0,0,0-1.37-.581,1.638,1.638,0,0,0-1.432.662A2.418,2.418,0,0,0,632.71,40.292Zm.242-5.854a1.636,1.636,0,0,0,.443,1.22,1.6,1.6,0,0,0,1.179.44,1.622,1.622,0,0,0,1.193-.443,1.647,1.647,0,0,0,.449-1.227,1.524,1.524,0,0,0-1.614-1.621,1.625,1.625,0,0,0-1.2.449A1.6,1.6,0,0,0,632.953,34.439Z" transform="translate(-26.45 -30.551)" fill="#231f20"/><path d="M636.653,39.807V37.188h2.619v2.619Z" transform="translate(-21.761 -25.908)" fill="#231f20"/></g></g></svg>