<svg xmlns="http://www.w3.org/2000/svg" width="42.662" height="42.662" viewBox="0 0 42.662 42.662">
  <g id="nxt-leaderboard" transform="translate(0 42.662) rotate(-90)">
    <path id="chevron-circle-down-solid" d="M8,29.331A21.331,21.331,0,1,0,29.331,8,21.327,21.327,0,0,0,8,29.331Zm19.869,9.8L16.214,27.473a2.056,2.056,0,0,1,0-2.916L17.676,23.1a2.056,2.056,0,0,1,2.916,0l8.739,8.739L38.07,23.1a2.056,2.056,0,0,1,2.916,0l1.462,1.462a2.056,2.056,0,0,1,0,2.916L30.793,39.128A2.066,2.066,0,0,1,27.869,39.128Z" transform="translate(-8 -8)" fill="#fff"/>
  </g>
</svg>
