<svg xmlns="http://www.w3.org/2000/svg" xmlns:xlink="http://www.w3.org/1999/xlink" width="936.288" height="101.472" viewBox="0 0 936.288 101.472"><defs><linearGradient id="a" y1="0.5" x2="1" y2="0.5" gradientUnits="objectBoundingBox"><stop offset="0" stop-color="#d3b37c"/><stop offset="0.242" stop-color="#d3b37c"/><stop offset="0.409" stop-color="#d3b37c" stop-opacity="0.718"/><stop offset="0.696" stop-color="#d3b37c" stop-opacity="0.2"/><stop offset="0.933" stop-color="#d3b37c" stop-opacity="0"/></linearGradient></defs><g transform="translate(-107.488 -214.809)"><g transform="translate(788.371 214.809)"><path d="M3324.934,398.221c0,5.158-3.711,9-10.914,9a16.352,16.352,0,0,1-10.659-3.837c-.085-.085-.342-.329-.342-.329l3.171-3.69s.2.162.326.27a12.967,12.967,0,0,0,7.887,3.068c3.454,0,5.457-1.749,5.457-4.179,0-2.088-1.281-3.451-5.287-4.006l-1.535-.213q-.71-.1-1.366-.239c-5.2-1.317-6.714-4.585-7.09-5.724a.068.068,0,0,1,0-.018,8.939,8.939,0,0,1-.278-2.289c0-5.243,3.836-8.738,9.805-8.738a15.922,15.922,0,0,1,9.378,2.9c.105.085.306.237.306.237s-.136.231-.221.36l-2.276,3.5-.368-.213a12.233,12.233,0,0,0-6.948-2.26c-2.942,0-4.562,1.62-4.562,3.88,0,2,1.406,3.366,5.328,3.922l1.535.214C3321.863,390.591,3324.934,393.235,3324.934,398.221Zm93.819-10.852a9.409,9.409,0,0,1-9.4,9.4h-5.328v9.882h-11.451l-5.69-9.452a4.823,4.823,0,0,0-3.691-2.316q-.83-.076-1.665-.113v11.881h-5.293v-11.72a35.092,35.092,0,0,0-5.183.947l4.457,10.774h-5.667l-2.253-5.7-1.36-3.439a35.166,35.166,0,0,0-12.675,9.136h-11.9V394.286h-11.4v12.362h-5.293V377.971h5.293v11.82h11.4v-11.82h5.294V406.44l11.778-28.469h4.918l.116.281,5.5,13.287a39.766,39.766,0,0,1,6.977-1.284V377.971H3387.9a8.426,8.426,0,0,1,8.417,8.416v.8a8.426,8.426,0,0,1-4.958,7.67l7.437,11.773V377.971h10.56A9.409,9.409,0,0,1,3418.753,387.369Zm-62.862,10.794a39.831,39.831,0,0,1,8.652-4.983l-3.337-8.427-.012.029-.006-.017Zm32.305-7.225a3.769,3.769,0,0,0,3.469-3.751v-.8a3.77,3.77,0,0,0-3.766-3.766h-6.37v7.5A39.992,39.992,0,0,1,3388.2,390.938Zm25.131-3.569a4.785,4.785,0,0,0-4.747-4.941h-4.553v9.882h4.553A4.785,4.785,0,0,0,3413.328,387.369Z" transform="translate(-3163.349 -335.569)" fill="#e4200e"/><g transform="translate(0 0)"><line x2="0.009" transform="translate(101.425 53.003)" fill="none"/><path d="M2857.985,249.508h-7.078c-.181-.475-.37-.94-.579-1.4-.189-.465-.4-.921-.616-1.377-.418-.882-.864-1.755-1.347-2.609-.029-.037-.047-.085-.076-.132-.475-.854-.977-1.68-1.518-2.5-.265-.417-.55-.825-.835-1.234a46.3,46.3,0,0,0-3.568-4.451l-.541-.569c-.512-.541-1.044-1.072-1.585-1.594-.18-.171-.351-.342-.531-.5-.142-.123-.275-.247-.408-.37-.209-.19-.418-.371-.626-.55-.56-.484-1.129-.949-1.708-1.4-.218-.171-.446-.341-.664-.512-.75-.56-1.5-1.091-2.277-1.6-.342-.227-.683-.455-1.034-.664-.2-.123-.408-.256-.617-.371s-.4-.247-.607-.359a.79.79,0,0,1-.114-.067c-.418-.247-.845-.475-1.272-.693q-.669-.369-1.338-.683c-.455-.228-.911-.437-1.366-.636s-.921-.409-1.4-.589c-.911-.371-1.831-.712-2.77-1.016a.856.856,0,0,1-.152-.047c-.446-.152-.892-.285-1.347-.418a.26.26,0,0,1-.114-.028c-.474-.134-.939-.266-1.413-.371-.494-.133-1-.247-1.509-.35s-1.006-.2-1.518-.295c-1.016-.18-2.05-.323-3.093-.436a44.156,44.156,0,0,0-48.63,43.866,44.121,44.121,0,0,0,23.105,38.771c-.256-.123-.5-.266-.75-.408a49.43,49.43,0,0,1-28.855-34.681c-.095-1.215-.142-2.439-.142-3.682a50.738,50.738,0,0,1,63.731-49.043l.191.05c.889.24,1.772.495,2.641.781.522.171,1.025.351,1.537.531,1.158.418,2.3.883,3.416,1.386a.669.669,0,0,0,.114.047c1.072.484,2.135,1.006,3.169,1.574,1.072.57,2.125,1.186,3.15,1.851s2.031,1.338,3,2.059c.38.274.75.56,1.12.853.133.1.266.209.389.313.456.361.892.731,1.328,1.1.921.788,1.813,1.6,2.676,2.468l.635.636c.209.218.417.436.626.664q1.238,1.323,2.391,2.734a51.149,51.149,0,0,1,4.175,5.958q.939,1.565,1.765,3.2.413.825.8,1.65c.256.561.5,1.12.74,1.69s.465,1.138.683,1.717S2857.785,248.92,2857.985,249.508Z" transform="translate(-2759.093 -214.809)" fill="url(#a)"/><path d="M3123.953,451.228l-.029.114a.488.488,0,0,1,.019-.114Z" transform="translate(-3030.242 -390.52)" fill="#d3b37c"/><path d="M2874.939,563.378c.313.162.626.333.939.494C2875.566,563.72,2875.252,563.558,2874.939,563.378Z" transform="translate(-2845.192 -473.872)" fill="#d3b37c"/></g><path d="M2823.405,322.373h-4.792v-4.2h4.792v-4.793h4.2v4.793h4.793v4.2h-4.793v4.793h-4.2Zm-37.129,36.8h6.6V325.993h-5.009l-6.641,4.184v6.711l5.046-2.776Zm16.957-17.281a8.009,8.009,0,0,1-4.869-7.42c0-5.676,4.63-9.408,11.643-9.408,6.974,0,11.6,3.732,11.6,9.312a8.189,8.189,0,0,1-4.869,7.517c3.655,1.569,5.844,4.475,5.844,8.208,0,6-5.017,10.009-12.573,10.009-7.6,0-12.618-3.965-12.618-9.868C2797.39,346.455,2799.578,343.5,2803.234,341.89Zm2.2-7.007a4.534,4.534,0,1,0,4.533-4.429A4.216,4.216,0,0,0,2805.429,334.882Zm-.975,14.846c0,3,2.2,4.98,5.508,4.98s5.509-1.983,5.509-4.98c0-3.042-2.2-5.069-5.509-5.069S2804.454,346.687,2804.454,349.729Zm94.673.965a8.014,8.014,0,0,1-2.42,6.007,9.962,9.962,0,0,1-7,2.4H2881v0l-2.4,0V346.962a20.975,20.975,0,0,0-5.323,1.139l4.486,10.992h-5.693l-3.534-9.421a11.511,11.511,0,0,0-1.845.868,39.834,39.834,0,0,0-8.963,7c-.455.467-.922.965-1.4,1.483-.093.213-.187.424-.284.632-.142.324-.294.646-.446.968q-.627,1.325-1.338,2.59c-.123.228-.257.456-.38.684-.218.4-.455.8-.7,1.186-.152.256-.3.5-.465.75a5.22,5.22,0,0,1-.361.569,47.573,47.573,0,0,1-9.833,11.544c-.628.51-1.262,1.015-1.917,1.509-.531.4-1.063.778-1.613,1.157a50.829,50.829,0,0,1-50.746,3.92q-2.078-1-4.052-2.183c-.873-.531-1.727-1.081-2.571-1.651-.417-.294-.835-.587-1.243-.882-.826-.6-1.622-1.224-2.41-1.869-.313-.257-.626-.522-.93-.788s-.617-.531-.911-.807c-.921-.825-1.813-1.7-2.667-2.6-.256-.275-.522-.561-.778-.844-.275-.295-.541-.6-.807-.912s-.531-.616-.787-.929-.513-.627-.759-.949c-.209-.257-.408-.522-.607-.788-.541-.7-1.053-1.433-1.556-2.173-.228-.332-.446-.674-.664-1.016-.237-.361-.465-.721-.683-1.092-.417-.682-.816-1.375-1.186-2.078-.37-.674-.721-1.347-1.053-2.04-.114-.227-.228-.464-.323-.692a50.062,50.062,0,0,1-2.192-5.494c-.095-.285-.19-.578-.275-.864-.095-.3-.19-.617-.275-.92s-.171-.607-.256-.911q-.313-1.154-.569-2.334c-.076-.342-.142-.683-.218-1.035-.1-.531-.2-1.071-.285-1.612-.18-1.129-.332-2.278-.446-3.435-.038-.389-.066-.768-.1-1.157a49.43,49.43,0,0,0,28.855,34.681c.247.142.493.285.75.408.161.086.313.162.475.257s.3.161.465.237a43.949,43.949,0,0,0,34.169,2.524c.019,0,.038,0,.047-.019a39.522,39.522,0,0,0,4.944-2.03,10.158,10.158,0,0,0,.958-.475c.636-.313,1.252-.645,1.869-1.016.313-.161.617-.351.92-.541.608-.361,1.205-.74,1.784-1.147.883-.58,1.737-1.206,2.571-1.879.551-.418,1.1-.873,1.633-1.347.246-.2.493-.418.73-.645a.533.533,0,0,0,.151-.143c.494-.427.968-.892,1.442-1.376.256-.237.5-.494.74-.759q.754-.768,1.424-1.566a10.477,10.477,0,0,0,.683-.806c.674-.816,1.329-1.661,1.936-2.524.418-.569.807-1.148,1.177-1.736a.052.052,0,0,0,.028-.047c.2-.294.38-.589.551-.883.379-.607.731-1.214,1.063-1.84.181-.313.342-.627.5-.949s.323-.636.474-.958c.1-.219.219-.447.313-.675.08-.17.155-.341.232-.511a9.67,9.67,0,0,1-4.061,2.378c-4.982,1.544-11.6.114-15.176-3.215-.127-.128-.308-.3-.432-.414l3.306-3.844c.135.11.265.213.426.353a12.736,12.736,0,0,0,7.717,3c3.2,0,5.269-1.571,5.269-4,.016-3.7-4.474-3.612-8-4.282-3.284-.746-6.26-3.03-7.115-5.753l-.01-.039a8.806,8.806,0,0,1,2.4-8.654c4.222-3.829,12.38-2.68,16.515.482.132.1.273.211.4.3-.07.167-2.434,3.761-2.6,4.032l-.473-.275a11.917,11.917,0,0,0-6.809-2.221c-2.457-.017-4.375,1.246-4.383,3.709,0,2.06,1.639,3.251,5.16,3.749,6.136.608,10.6,2.87,10.165,9.487l8.565-20.985h4.706l5.4,13.215a29.61,29.61,0,0,1,7.136-1.465l-.039-11.748c2.6.091,10.872-.283,13.116.382a7.431,7.431,0,0,1,5.749,7.375,7.079,7.079,0,0,1-2.614,5.567A7.481,7.481,0,0,1,2899.127,350.694Zm-32.256-5.447-3.179-8.506-5.735,14.7A28.559,28.559,0,0,1,2866.871,345.247ZM2883.765,342a32.6,32.6,0,0,1,6.377.324,3.668,3.668,0,0,0-.163-6.755c-1.219-.451-4.8-.227-6.214-.277Zm10.192,8.685c.087-3.4-5.311-4.451-10.192-4.149v7.791h5.648C2891.6,354.327,2893.958,353.188,2893.958,350.685Z" transform="translate(-2759.505 -288.066)" fill="#d3b37c"/></g><g transform="translate(107.488 256.882)"><path d="M107.488,388.017l2.642-.259a3.248,3.248,0,0,0,.968,1.966,2.915,2.915,0,0,0,1.968.628,3.012,3.012,0,0,0,1.977-.559,1.664,1.664,0,0,0,.665-1.306,1.237,1.237,0,0,0-.28-.817,2.238,2.238,0,0,0-.977-.586q-.477-.166-2.174-.591a7.357,7.357,0,0,1-3.064-1.338,3.567,3.567,0,0,1-.656-4.656,3.653,3.653,0,0,1,1.679-1.371,6.694,6.694,0,0,1,2.647-.471,5.656,5.656,0,0,1,3.812,1.117,3.953,3.953,0,0,1,1.344,2.982l-2.716.12a2.326,2.326,0,0,0-.748-1.5,2.726,2.726,0,0,0-1.72-.457,3.088,3.088,0,0,0-1.853.489.987.987,0,0,0-.431.84,1.041,1.041,0,0,0,.4.821,7.117,7.117,0,0,0,2.5.9,13.123,13.123,0,0,1,2.931.974,3.79,3.79,0,0,1,1.487,1.375,4.043,4.043,0,0,1,.537,2.155,4,4,0,0,1-.642,2.178,3.853,3.853,0,0,1-1.816,1.509,7.584,7.584,0,0,1-2.927.494,5.8,5.8,0,0,1-3.918-1.186A5.169,5.169,0,0,1,107.488,388.017Z" transform="translate(-107.488 -378.658)" fill="#1a1a18"/><path d="M156.832,385.737a8.652,8.652,0,0,1,.615-3.471,6.365,6.365,0,0,1,1.252-1.855,5.231,5.231,0,0,1,1.739-1.218,7.345,7.345,0,0,1,2.9-.535,6.3,6.3,0,0,1,4.757,1.855,8.329,8.329,0,0,1,.014,10.287,7.041,7.041,0,0,1-9.505.009A7.012,7.012,0,0,1,156.832,385.737Zm2.8-.092a5.089,5.089,0,0,0,1.055,3.484,3.613,3.613,0,0,0,5.344.009,5.193,5.193,0,0,0,1.041-3.53,5.11,5.11,0,0,0-1.014-3.471,3.741,3.741,0,0,0-5.4.014A5.133,5.133,0,0,0,159.63,385.645Z" transform="translate(-144.161 -378.658)" fill="#1a1a18"/><path d="M215.824,379.557h2.716v7.329a15.3,15.3,0,0,0,.1,2.261,2.191,2.191,0,0,0,.83,1.333,2.878,2.878,0,0,0,1.794.5,2.725,2.725,0,0,0,1.743-.475,1.88,1.88,0,0,0,.706-1.168,15.342,15.342,0,0,0,.119-2.3v-7.485h2.716v7.107a18.352,18.352,0,0,1-.22,3.443,3.817,3.817,0,0,1-.812,1.7,4.1,4.1,0,0,1-1.583,1.1,6.845,6.845,0,0,1-2.588.411,7.41,7.41,0,0,1-2.922-.448,4.175,4.175,0,0,1-1.573-1.163,3.731,3.731,0,0,1-.762-1.5,16.527,16.527,0,0,1-.266-3.434Z" transform="translate(-188.005 -379.326)" fill="#1a1a18"/><path d="M268.98,393.088V381.846h-3.991v-2.289h10.689v2.289H271.7v11.242Z" transform="translate(-224.546 -379.326)" fill="#1a1a18"/><path d="M313.476,393.088V379.557h2.716v5.326h5.321v-5.326h2.716v13.531h-2.716v-5.916h-5.321v5.916Z" transform="translate(-260.582 -379.326)" fill="#1a1a18"/><path d="M392.081,393.088h-2.954l-1.174-3.073h-5.377l-1.11,3.073h-2.881l5.239-13.531H386.7Zm-5-5.353-1.853-5.021-1.816,5.021Z" transform="translate(-308.972 -379.326)" fill="#1a1a18"/><path d="M436.827,393.088V379.557h9.221v2.289h-6.505v3.2h5.615v2.289h-5.615v5.75Z" transform="translate(-352.259 -379.326)" fill="#1a1a18"/><path d="M481.491,393.088V379.557h5.716a9.727,9.727,0,0,1,3.133.365,3.1,3.1,0,0,1,1.564,1.3,3.916,3.916,0,0,1,.587,2.132,3.626,3.626,0,0,1-.89,2.515,4.265,4.265,0,0,1-2.661,1.251,6.351,6.351,0,0,1,1.454,1.135,15.467,15.467,0,0,1,1.546,2.2l1.642,2.64h-3.248l-1.964-2.944a19.069,19.069,0,0,0-1.431-1.989,2.085,2.085,0,0,0-.817-.563,4.447,4.447,0,0,0-1.367-.153h-.55v5.649Zm2.716-7.808h2.009a10.308,10.308,0,0,0,2.44-.166,1.463,1.463,0,0,0,.762-.572,1.771,1.771,0,0,0,.275-1.015,1.628,1.628,0,0,0-.363-1.1,1.658,1.658,0,0,0-1.023-.531q-.33-.046-1.982-.046h-2.119Z" transform="translate(-385.454 -379.326)" fill="#1a1a18"/><path d="M533.979,393.088V379.557h2.716v13.531Z" transform="translate(-424.464 -379.326)" fill="#1a1a18"/><path d="M561.856,387.445l2.633.84a5.947,5.947,0,0,1-2.014,3.29,6.308,6.308,0,0,1-7.978-.766,7.07,7.07,0,0,1-1.725-5.035,7.424,7.424,0,0,1,1.734-5.247,5.928,5.928,0,0,1,4.56-1.869,5.575,5.575,0,0,1,4.009,1.468,5.346,5.346,0,0,1,1.376,2.492l-2.689.646a2.872,2.872,0,0,0-1-1.662,2.842,2.842,0,0,0-1.84-.609,3.053,3.053,0,0,0-2.427,1.08,5.317,5.317,0,0,0-.931,3.5,5.7,5.7,0,0,0,.917,3.655,2.973,2.973,0,0,0,2.386,1.089,2.71,2.71,0,0,0,1.862-.692A4.03,4.03,0,0,0,561.856,387.445Z" transform="translate(-438.432 -378.658)" fill="#1a1a18"/><path d="M615.649,393.088H612.7l-1.175-3.073h-5.376l-1.11,3.073h-2.881l5.239-13.531h2.872Zm-5-5.353-1.853-5.021-1.816,5.021Z" transform="translate(-475.132 -379.326)" fill="#1a1a18"/><path d="M677.982,379.557h5.377a15.458,15.458,0,0,1,2.381.134,3.389,3.389,0,0,1,2.436,1.689,3.077,3.077,0,0,1,.413,1.583,3.208,3.208,0,0,1-1.89,2.935,3.54,3.54,0,0,1,1.89,1.228,3.272,3.272,0,0,1,.661,2.04,4.043,4.043,0,0,1-.427,1.8,3.612,3.612,0,0,1-1.165,1.394,3.832,3.832,0,0,1-1.821.641q-.679.074-3.276.092h-4.578Zm2.716,2.252v3.129h1.78q1.587,0,1.973-.046a1.79,1.79,0,0,0,1.1-.484,1.434,1.434,0,0,0,.4-1.057,1.491,1.491,0,0,0-.344-1.02,1.556,1.556,0,0,0-1.023-.475q-.4-.046-2.321-.046Zm0,5.381v3.618h2.514a12.185,12.185,0,0,0,1.863-.083,1.594,1.594,0,0,0,1.367-1.689,1.773,1.773,0,0,0-.293-1.034,1.661,1.661,0,0,0-.849-.618,9.174,9.174,0,0,0-2.408-.194Z" transform="translate(-531.49 -379.326)" fill="#1a1a18"/><path d="M730.792,393.088V379.557h9.973v2.289h-7.257v3h6.753v2.28h-6.753v3.683h7.514v2.279Z" transform="translate(-570.739 -379.326)" fill="#1a1a18"/><path d="M797.251,388.017l2.643-.259a3.249,3.249,0,0,0,.968,1.966,2.915,2.915,0,0,0,1.968.628,3.012,3.012,0,0,0,1.977-.559,1.664,1.664,0,0,0,.665-1.306,1.237,1.237,0,0,0-.28-.817,2.237,2.237,0,0,0-.977-.586q-.477-.166-2.174-.591a7.355,7.355,0,0,1-3.064-1.338,3.53,3.53,0,0,1-1.239-2.723,3.492,3.492,0,0,1,.583-1.934A3.653,3.653,0,0,1,800,379.129a6.693,6.693,0,0,1,2.647-.471,5.654,5.654,0,0,1,3.812,1.117,3.953,3.953,0,0,1,1.344,2.982l-2.716.12a2.324,2.324,0,0,0-.748-1.5,2.726,2.726,0,0,0-1.72-.457,3.089,3.089,0,0,0-1.853.489.987.987,0,0,0-.431.84,1.041,1.041,0,0,0,.4.821,7.117,7.117,0,0,0,2.5.9,13.132,13.132,0,0,1,2.931.974,3.788,3.788,0,0,1,1.486,1.375,4.28,4.28,0,0,1-.106,4.333,3.854,3.854,0,0,1-1.817,1.509,7.582,7.582,0,0,1-2.927.494,5.8,5.8,0,0,1-3.917-1.186A5.171,5.171,0,0,1,797.251,388.017Z" transform="translate(-620.133 -378.658)" fill="#1a1a18"/><path d="M848.776,393.088V379.557h2.716v5.326h5.322v-5.326h2.716v13.531h-2.716v-5.916h-5.322v5.916Z" transform="translate(-658.427 -379.326)" fill="#1a1a18"/><path d="M909.758,393.088H906.8l-1.174-3.073h-5.377l-1.11,3.073h-2.881l5.239-13.531h2.872Zm-5-5.353-1.853-5.021-1.817,5.021Z" transform="translate(-693.719 -379.326)" fill="#1a1a18"/><path d="M954.468,393.088V379.557h5.716a9.726,9.726,0,0,1,3.133.365,3.094,3.094,0,0,1,1.564,1.3,3.916,3.916,0,0,1,.587,2.132,3.626,3.626,0,0,1-.89,2.515,4.265,4.265,0,0,1-2.661,1.251,6.349,6.349,0,0,1,1.454,1.135,15.472,15.472,0,0,1,1.546,2.2l1.642,2.64h-3.248l-1.964-2.944a19.071,19.071,0,0,0-1.431-1.989,2.085,2.085,0,0,0-.817-.563,4.447,4.447,0,0,0-1.367-.153h-.55v5.649Zm2.716-7.808h2.009a10.307,10.307,0,0,0,2.44-.166,1.463,1.463,0,0,0,.762-.572,1.768,1.768,0,0,0,.275-1.015,1.628,1.628,0,0,0-.363-1.1,1.658,1.658,0,0,0-1.023-.531q-.33-.046-1.982-.046h-2.119Z" transform="translate(-736.979 -379.326)" fill="#1a1a18"/><path d="M1007.277,393.088V379.557h4.358a15.717,15.717,0,0,1,3.23.2,3.526,3.526,0,0,1,1.936,1.324,4.219,4.219,0,0,1,.78,2.635,4.436,4.436,0,0,1-.45,2.1,3.7,3.7,0,0,1-1.142,1.334,3.925,3.925,0,0,1-1.409.641,15.393,15.393,0,0,1-2.817.194h-1.771v5.1Zm2.716-11.242v3.84h1.486a6.976,6.976,0,0,0,2.147-.212,1.783,1.783,0,0,0,.849-.665,1.826,1.826,0,0,0,.307-1.052,1.755,1.755,0,0,0-.431-1.218,1.875,1.875,0,0,0-1.092-.6,12.963,12.963,0,0,0-1.954-.092Z" transform="translate(-776.228 -379.326)" fill="#1a1a18"/><path d="M1045.787,422.151h2.578v1.855a6.505,6.505,0,0,1-.193,1.777,2.656,2.656,0,0,1-.729,1.168,3.755,3.755,0,0,1-1.362.812l-.5-1.071a2.169,2.169,0,0,0,1.11-.711,2.146,2.146,0,0,0,.349-1.237h-1.248Z" transform="translate(-804.692 -410.983)" fill="#1a1a18"/><path d="M1087.488,393.088V379.557h2.643l5.5,9.036v-9.036h2.523v13.531h-2.725l-5.422-8.823v8.823Z" transform="translate(-835.842 -379.326)" fill="#1a1a18"/><path d="M1138.083,385.737a8.651,8.651,0,0,1,.615-3.471,6.362,6.362,0,0,1,1.252-1.855,5.23,5.23,0,0,1,1.739-1.218,7.345,7.345,0,0,1,2.9-.535,6.294,6.294,0,0,1,4.757,1.855,8.33,8.33,0,0,1,.014,10.287,7.041,7.041,0,0,1-9.505.009A7.011,7.011,0,0,1,1138.083,385.737Zm2.8-.092a5.089,5.089,0,0,0,1.055,3.484,3.613,3.613,0,0,0,5.344.009,5.193,5.193,0,0,0,1.041-3.53,5.109,5.109,0,0,0-1.014-3.471,3.741,3.741,0,0,0-5.4.014A5.133,5.133,0,0,0,1140.881,385.645Z" transform="translate(-873.445 -378.658)" fill="#1a1a18"/><path d="M1197.385,393.088V381.846h-3.991v-2.289h10.689v2.289H1200.1v11.242Z" transform="translate(-914.553 -379.326)" fill="#1a1a18"/><path d="M1262.247,393.088V379.557h9.221v2.289h-6.505v3.2h5.615v2.289h-5.615v5.75Z" transform="translate(-965.726 -379.326)" fill="#1a1a18"/><path d="M1304.731,385.737a8.651,8.651,0,0,1,.615-3.471,6.374,6.374,0,0,1,1.252-1.855,5.235,5.235,0,0,1,1.739-1.218,7.345,7.345,0,0,1,2.9-.535,6.3,6.3,0,0,1,4.757,1.855,8.33,8.33,0,0,1,.014,10.287,6.246,6.246,0,0,1-4.734,1.851,6.31,6.31,0,0,1-4.771-1.841A7.013,7.013,0,0,1,1304.731,385.737Zm2.8-.092a5.089,5.089,0,0,0,1.055,3.484,3.613,3.613,0,0,0,5.344.009,5.191,5.191,0,0,0,1.042-3.53,5.111,5.111,0,0,0-1.014-3.471,3.741,3.741,0,0,0-5.4.014A5.133,5.133,0,0,0,1307.529,385.645Z" transform="translate(-997.301 -378.658)" fill="#1a1a18"/><path d="M1363.83,393.088V379.557h5.716a9.727,9.727,0,0,1,3.133.365,3.1,3.1,0,0,1,1.564,1.3,3.917,3.917,0,0,1,.587,2.132,3.625,3.625,0,0,1-.89,2.515,4.263,4.263,0,0,1-2.661,1.251,6.351,6.351,0,0,1,1.454,1.135,15.5,15.5,0,0,1,1.546,2.2l1.642,2.64h-3.248l-1.964-2.944a19.074,19.074,0,0,0-1.431-1.989,2.086,2.086,0,0,0-.817-.563,4.445,4.445,0,0,0-1.367-.153h-.55v5.649Zm2.716-7.808h2.009a10.31,10.31,0,0,0,2.44-.166,1.463,1.463,0,0,0,.761-.572,1.769,1.769,0,0,0,.276-1.015,1.629,1.629,0,0,0-.363-1.1,1.658,1.658,0,0,0-1.023-.531q-.33-.046-1.982-.046h-2.119Z" transform="translate(-1041.224 -379.326)" fill="#1a1a18"/><path d="M1436.971,393.088V379.557h4.358a15.719,15.719,0,0,1,3.23.2,3.525,3.525,0,0,1,1.936,1.324,4.219,4.219,0,0,1,.78,2.635,4.436,4.436,0,0,1-.45,2.1,3.7,3.7,0,0,1-1.142,1.334,3.923,3.923,0,0,1-1.408.641,15.392,15.392,0,0,1-2.817.194h-1.771v5.1Zm2.716-11.242v3.84h1.486a6.976,6.976,0,0,0,2.147-.212,1.786,1.786,0,0,0,.849-.665,1.826,1.826,0,0,0,.307-1.052,1.755,1.755,0,0,0-.431-1.218,1.875,1.875,0,0,0-1.092-.6,12.965,12.965,0,0,0-1.954-.092Z" transform="translate(-1095.584 -379.326)" fill="#1a1a18"/><path d="M1485.779,393.088V379.557h9.973v2.289h-7.257v3h6.753v2.28h-6.753v3.683h7.514v2.279Z" transform="translate(-1131.859 -379.326)" fill="#1a1a18"/><path d="M1534.623,393.088V379.557h5.716a9.727,9.727,0,0,1,3.133.365,3.1,3.1,0,0,1,1.564,1.3,3.917,3.917,0,0,1,.587,2.132,3.625,3.625,0,0,1-.89,2.515,4.264,4.264,0,0,1-2.661,1.251,6.347,6.347,0,0,1,1.454,1.135,15.5,15.5,0,0,1,1.546,2.2l1.642,2.64h-3.248l-1.964-2.944a19.062,19.062,0,0,0-1.431-1.989,2.083,2.083,0,0,0-.817-.563,4.445,4.445,0,0,0-1.367-.153h-.55v5.649Zm2.716-7.808h2.009a10.31,10.31,0,0,0,2.44-.166,1.462,1.462,0,0,0,.761-.572,1.769,1.769,0,0,0,.276-1.015,1.628,1.628,0,0,0-.363-1.1,1.658,1.658,0,0,0-1.023-.531q-.33-.046-1.982-.046h-2.119Z" transform="translate(-1168.161 -379.326)" fill="#1a1a18"/><path d="M1584.754,388.017l2.642-.259a3.248,3.248,0,0,0,.968,1.966,2.915,2.915,0,0,0,1.968.628,3.012,3.012,0,0,0,1.977-.559,1.664,1.664,0,0,0,.665-1.306,1.237,1.237,0,0,0-.28-.817,2.239,2.239,0,0,0-.977-.586q-.477-.166-2.174-.591a7.357,7.357,0,0,1-3.064-1.338,3.568,3.568,0,0,1-.656-4.656,3.654,3.654,0,0,1,1.679-1.371,6.7,6.7,0,0,1,2.647-.471,5.656,5.656,0,0,1,3.812,1.117,3.953,3.953,0,0,1,1.344,2.982l-2.716.12a2.325,2.325,0,0,0-.748-1.5,2.726,2.726,0,0,0-1.72-.457,3.088,3.088,0,0,0-1.853.489.987.987,0,0,0-.431.84,1.042,1.042,0,0,0,.4.821,7.118,7.118,0,0,0,2.5.9,13.121,13.121,0,0,1,2.932.974,3.79,3.79,0,0,1,1.487,1.375,4.043,4.043,0,0,1,.537,2.155,4,4,0,0,1-.642,2.178,3.855,3.855,0,0,1-1.817,1.509,7.582,7.582,0,0,1-2.927.494,5.8,5.8,0,0,1-3.918-1.186A5.169,5.169,0,0,1,1584.754,388.017Z" transform="translate(-1205.419 -378.658)" fill="#1a1a18"/><path d="M1634.1,385.737a8.651,8.651,0,0,1,.615-3.471,6.365,6.365,0,0,1,1.252-1.855,5.232,5.232,0,0,1,1.739-1.218,7.345,7.345,0,0,1,2.9-.535,6.294,6.294,0,0,1,4.757,1.855,8.329,8.329,0,0,1,.014,10.287,6.247,6.247,0,0,1-4.734,1.851,6.31,6.31,0,0,1-4.771-1.841A7.012,7.012,0,0,1,1634.1,385.737Zm2.8-.092a5.089,5.089,0,0,0,1.055,3.484,3.613,3.613,0,0,0,5.344.009,5.193,5.193,0,0,0,1.041-3.53,5.11,5.11,0,0,0-1.014-3.471,3.741,3.741,0,0,0-5.4.014A5.133,5.133,0,0,0,1636.9,385.645Z" transform="translate(-1242.093 -378.658)" fill="#1a1a18"/><path d="M1693.268,393.088V379.557h2.643l5.5,9.036v-9.036h2.523v13.531h-2.725l-5.422-8.823v8.823Z" transform="translate(-1286.069 -379.326)" fill="#1a1a18"/><path d="M1743.327,388.017l2.643-.259a3.249,3.249,0,0,0,.968,1.966,2.915,2.915,0,0,0,1.968.628,3.012,3.012,0,0,0,1.977-.559,1.664,1.664,0,0,0,.665-1.306,1.236,1.236,0,0,0-.28-.817,2.237,2.237,0,0,0-.977-.586q-.477-.166-2.174-.591a7.355,7.355,0,0,1-3.064-1.338,3.53,3.53,0,0,1-1.239-2.723,3.492,3.492,0,0,1,.583-1.934,3.653,3.653,0,0,1,1.679-1.371,6.694,6.694,0,0,1,2.647-.471,5.654,5.654,0,0,1,3.812,1.117,3.953,3.953,0,0,1,1.344,2.982l-2.716.12a2.326,2.326,0,0,0-.748-1.5,2.727,2.727,0,0,0-1.72-.457,3.088,3.088,0,0,0-1.853.489.987.987,0,0,0-.431.84,1.041,1.041,0,0,0,.4.821,7.116,7.116,0,0,0,2.5.9,13.127,13.127,0,0,1,2.931.974,3.787,3.787,0,0,1,1.486,1.375,4.28,4.28,0,0,1-.105,4.333,3.855,3.855,0,0,1-1.817,1.509,7.584,7.584,0,0,1-2.927.494,5.8,5.8,0,0,1-3.918-1.186A5.171,5.171,0,0,1,1743.327,388.017Z" transform="translate(-1323.274 -378.658)" fill="#1a1a18"/><path d="M1815.075,379.557h2.716v7.329a15.279,15.279,0,0,0,.1,2.261,2.191,2.191,0,0,0,.83,1.333,2.878,2.878,0,0,0,1.794.5,2.726,2.726,0,0,0,1.743-.475,1.879,1.879,0,0,0,.706-1.168,15.34,15.34,0,0,0,.119-2.3v-7.485h2.716v7.107a18.346,18.346,0,0,1-.22,3.443,3.817,3.817,0,0,1-.812,1.7,4.1,4.1,0,0,1-1.583,1.1,6.843,6.843,0,0,1-2.587.411,7.41,7.41,0,0,1-2.922-.448,4.177,4.177,0,0,1-1.573-1.163,3.732,3.732,0,0,1-.761-1.5,16.522,16.522,0,0,1-.266-3.434Z" transform="translate(-1376.598 -379.326)" fill="#1a1a18"/><path d="M1868.1,393.088V379.557h2.643l5.5,9.036v-9.036h2.523v13.531h-2.725l-5.422-8.823v8.823Z" transform="translate(-1416.006 -379.326)" fill="#1a1a18"/><path d="M1920.8,379.557h4.964a9.65,9.65,0,0,1,2.56.258,4.5,4.5,0,0,1,2.027,1.246,5.919,5.919,0,0,1,1.285,2.192,10.041,10.041,0,0,1,.44,3.2,8.937,8.937,0,0,1-.413,2.88,5.972,5.972,0,0,1-1.44,2.39,4.77,4.77,0,0,1-1.908,1.08,8.17,8.17,0,0,1-2.4.286h-5.11Zm2.716,2.289v8.962h2.028a7.346,7.346,0,0,0,1.642-.129,2.5,2.5,0,0,0,1.1-.563,2.869,2.869,0,0,0,.711-1.306,8.868,8.868,0,0,0,.275-2.478,8.121,8.121,0,0,0-.275-2.409,3.1,3.1,0,0,0-.771-1.311,2.578,2.578,0,0,0-1.257-.637,12.261,12.261,0,0,0-2.23-.129Z" transform="translate(-1455.177 -379.326)" fill="#1a1a18"/><path d="M1973.684,393.088V379.557h9.973v2.289H1976.4v3h6.753v2.28H1976.4v3.683h7.514v2.279Z" transform="translate(-1494.479 -379.326)" fill="#1a1a18"/><path d="M2022.529,393.088V379.557h5.716a9.726,9.726,0,0,1,3.133.365,3.1,3.1,0,0,1,1.564,1.3,3.917,3.917,0,0,1,.587,2.132,3.625,3.625,0,0,1-.89,2.515,4.265,4.265,0,0,1-2.661,1.251,6.352,6.352,0,0,1,1.454,1.135,15.436,15.436,0,0,1,1.546,2.2l1.642,2.64h-3.248l-1.964-2.944a19.074,19.074,0,0,0-1.431-1.989,2.085,2.085,0,0,0-.817-.563,4.447,4.447,0,0,0-1.367-.153h-.55v5.649Zm2.716-7.808h2.009a10.309,10.309,0,0,0,2.441-.166,1.463,1.463,0,0,0,.761-.572,1.769,1.769,0,0,0,.275-1.015,1.628,1.628,0,0,0-.363-1.1,1.658,1.658,0,0,0-1.023-.531q-.33-.046-1.982-.046h-2.119Z" transform="translate(-1530.782 -379.326)" fill="#1a1a18"/><path d="M2095.909,393.088V381.846h-3.991v-2.289h10.689v2.289h-3.982v11.242Z" transform="translate(-1582.353 -379.326)" fill="#1a1a18"/><path d="M2140.405,393.088V379.557h2.716v5.326h5.321v-5.326h2.716v13.531h-2.716v-5.916h-5.321v5.916Z" transform="translate(-1618.389 -379.326)" fill="#1a1a18"/><path d="M2193.214,393.088V379.557h9.973v2.289h-7.257v3h6.753v2.28h-6.753v3.683h7.514v2.279Z" transform="translate(-1657.638 -379.326)" fill="#1a1a18"/><path d="M2267.818,393.088h-2.954l-1.175-3.073h-5.376l-1.11,3.073h-2.881l5.239-13.531h2.872Zm-5-5.353-1.854-5.021-1.816,5.021Z" transform="translate(-1703.055 -379.326)" fill="#1a1a18"/><path d="M2317.394,387.445v-2.28h5.854v5.39a7.369,7.369,0,0,1-2.473,1.463,8.957,8.957,0,0,1-3.28.632,7.323,7.323,0,0,1-3.679-.891,5.648,5.648,0,0,1-2.358-2.547,8.269,8.269,0,0,1-.789-3.6,7.83,7.83,0,0,1,.881-3.757,5.953,5.953,0,0,1,2.578-2.52,6.923,6.923,0,0,1,3.22-.674,6.4,6.4,0,0,1,3.913,1.057,4.775,4.775,0,0,1,1.812,2.921l-2.7.508a2.864,2.864,0,0,0-1.069-1.574,3.218,3.218,0,0,0-1.959-.577,3.669,3.669,0,0,0-2.83,1.135,4.8,4.8,0,0,0-1.051,3.369,5.321,5.321,0,0,0,1.064,3.614,3.544,3.544,0,0,0,2.789,1.2,4.65,4.65,0,0,0,1.711-.337,5.857,5.857,0,0,0,1.473-.817v-1.717Z" transform="translate(-1744.933 -378.658)" fill="#1a1a18"/><path d="M2369.411,393.088V379.557h9.973v2.289h-7.257v3h6.752v2.28h-6.752v3.683h7.514v2.279Z" transform="translate(-1788.591 -379.326)" fill="#1a1a18"/><path d="M2436.407,385.737a8.647,8.647,0,0,1,.615-3.471,6.361,6.361,0,0,1,1.252-1.855,5.234,5.234,0,0,1,1.739-1.218,7.344,7.344,0,0,1,2.9-.535,6.3,6.3,0,0,1,4.757,1.855,8.33,8.33,0,0,1,.014,10.287,7.041,7.041,0,0,1-9.505.009A7.012,7.012,0,0,1,2436.407,385.737Zm2.8-.092a5.091,5.091,0,0,0,1.055,3.484,3.613,3.613,0,0,0,5.344.009,5.191,5.191,0,0,0,1.042-3.53,5.11,5.11,0,0,0-1.014-3.471,3.741,3.741,0,0,0-5.4.014A5.132,5.132,0,0,0,2439.205,385.645Z" transform="translate(-1838.383 -378.658)" fill="#1a1a18"/><path d="M2495.541,393.088V379.557h9.221v2.289h-6.505v3.2h5.615v2.289h-5.615v5.75Z" transform="translate(-1882.333 -379.326)" fill="#1a1a18"/><path d="M2566.873,392.927h-2.578v-9.774a8.874,8.874,0,0,1-3.331,1.966v-2.353a7.453,7.453,0,0,0,2.193-1.26,4.787,4.787,0,0,0,1.624-2.164h2.092Z" transform="translate(-1930.957 -379.166)" fill="#1a1a18"/><path d="M2601.087,385.626a3.006,3.006,0,0,1-1.454-1.168,3.064,3.064,0,0,1-.454-1.629,3.285,3.285,0,0,1,1.051-2.5,5,5,0,0,1,5.964,0,3.273,3.273,0,0,1,1.06,2.5,2.965,2.965,0,0,1-.487,1.675,3.081,3.081,0,0,1-1.367,1.121,3.61,3.61,0,0,1,1.7,1.32,3.508,3.508,0,0,1,.583,2A4.09,4.09,0,0,1,2606.5,392a4.3,4.3,0,0,1-3.161,1.172,4.759,4.759,0,0,1-3.055-.969,3.789,3.789,0,0,1-1.44-3.138,3.9,3.9,0,0,1,.541-2.017A3.489,3.489,0,0,1,2601.087,385.626Zm.293,3.184a2.393,2.393,0,0,0,.546,1.671,1.766,1.766,0,0,0,1.363.6,1.706,1.706,0,0,0,1.321-.577,2.4,2.4,0,0,0,.523-1.666,2.165,2.165,0,0,0-.532-1.528,1.756,1.756,0,0,0-1.349-.577,1.609,1.609,0,0,0-1.408.655A2.412,2.412,0,0,0,2601.38,388.811Zm.239-5.8a1.63,1.63,0,0,0,.436,1.209,1.572,1.572,0,0,0,1.161.434,1.592,1.592,0,0,0,1.175-.438,1.636,1.636,0,0,0,.44-1.214,1.583,1.583,0,0,0-.436-1.168,1.551,1.551,0,0,0-1.151-.438,1.52,1.52,0,0,0-1.624,1.615Z" transform="translate(-1959.106 -379.166)" fill="#1a1a18"/><path d="M2641.823,424.744v-2.593h2.578v2.593Z" transform="translate(-1991.052 -410.983)" fill="#1a1a18"/></g></g></svg>